<svg aria-hidden="true" width="0" height="0" style="position:absolute"><symbol viewBox="0 0 20 20" id="030794220a577069b4c9e37f7881512d" xmlns="http://www.w3.org/2000/svg"><path d="M8.294 16.998c-.435 0-.847-.203-1.111-.553L3.61 11.724a1.392 1.392 0 01.27-1.951 1.392 1.392 0 011.953.27l2.351 3.104 5.911-9.492c.407-.652 1.267-.852 1.921-.445s.854 1.266.446 1.92L9.478 16.34a1.39 1.39 0 01-1.12.656c-.022.002-.042.002-.064.002z"/></symbol><symbol viewBox="0 0 20 20" id="06146f99ecc58ac979ac7b502d6cd836" xmlns="http://www.w3.org/2000/svg"><path d="M16 10c0 .553-.048 1-.601 1H4.601C4.049 11 4 10.553 4 10s.049-1 .601-1H15.4c.552 0 .6.447.6 1z"/></symbol><symbol viewBox="0 0 20 20" id="0670a98b8aa1a7eb0a0c37f3cdfba06b" xmlns="http://www.w3.org/2000/svg"><path d="M13.25 10L6.109 2.58a.697.697 0 010-.979.68.68 0 01.969 0l7.83 7.908a.697.697 0 010 .979l-7.83 7.908c-.268.271-.701.27-.969 0s-.268-.707 0-.979L13.25 10z"/></symbol><symbol viewBox="0 0 20 20" id="0cb49ca546fb58356376f1c47a03e649" xmlns="http://www.w3.org/2000/svg"><path d="M7.725 2.146c-1.016.756-1.289 1.953-1.239 2.59.064.779.222 1.793.222 1.793s-.313.17-.313.854c.109 1.717.683.976.801 1.729.284 1.814.933 1.491.933 2.481 0 1.649-.68 2.42-2.803 3.334C3.196 15.845 1 17 1 19v1h18v-1c0-2-2.197-3.155-4.328-4.072-2.123-.914-2.801-1.684-2.801-3.334 0-.99.647-.667.932-2.481.119-.753.692-.012.803-1.729 0-.684-.314-.854-.314-.854s.158-1.014.221-1.793c.065-.817-.398-2.561-2.3-3.096-.333-.34-.558-.881.466-1.424-2.24-.105-2.761 1.067-3.954 1.929z"/></symbol><symbol viewBox="0 0 20 20" id="0e19f3def72e51aa319d70b8512e31bc" xmlns="http://www.w3.org/2000/svg"><path d="M17.561 2.439c-1.442-1.443-2.525-1.227-2.525-1.227L2.21 14.037 1.2 18.799l4.763-1.01L18.789 4.966c-.001 0 .216-1.083-1.228-2.527zM5.68 17.217l-1.624.35c-.156-.293-.345-.586-.69-.932s-.639-.533-.932-.691l.35-1.623.47-.469s.883.018 1.881 1.016c.997.996 1.016 1.881 1.016 1.881l-.471.468z"/></symbol><symbol viewBox="0 0 20 20" id="4fb5be48250a6c477ecf48c803563a79" xmlns="http://www.w3.org/2000/svg"><path d="M19.059 10.898l-3.171-7.927A1.543 1.543 0 0014.454 2H5.546c-.632 0-1.2.384-1.434.971L.941 10.898a4.25 4.25 0 00-.246 2.272l.59 3.539A1.544 1.544 0 002.808 18h14.383c.755 0 1.399-.546 1.523-1.291l.59-3.539a4.22 4.22 0 00-.245-2.272zm-2.1 4.347a.902.902 0 01-.891.755H3.932a.902.902 0 01-.891-.755l-.365-2.193A.902.902 0 013.567 12h12.867c.558 0 .983.501.891 1.052l-.366 2.193z"/></symbol><symbol viewBox="0 0 20 20" id="5879339dda63c178b7ce0ee777d422bd" xmlns="http://www.w3.org/2000/svg"><path d="M16 10c0 .553-.048 1-.601 1H11v4.399c0 .552-.447.601-1 .601s-1-.049-1-.601V11H4.601C4.049 11 4 10.553 4 10s.049-1 .601-1H9V4.601C9 4.048 9.447 4 10 4s1 .048 1 .601V9h4.399c.553 0 .601.447.601 1z"/></symbol><symbol viewBox="0 0 20 20" id="6ee829994d94ef5fb09c27197dc2a11f" xmlns="http://www.w3.org/2000/svg"><path d="M3.302 12.238c.464 1.879 1.054 2.701 3.022 3.562 1.969.86 2.904 1.8 3.676 1.8s1.648-.822 3.616-1.684c1.969-.861 1.443-1.123 1.907-3.002L10 15.6l-6.698-3.362zm16.209-4.902l-8.325-4.662c-.652-.365-1.72-.365-2.372 0L.488 7.336c-.652.365-.652.963 0 1.328l8.325 4.662c.652.365 1.72.365 2.372 0l5.382-3.014-5.836-1.367a3.09 3.09 0 01-.731.086c-1.052 0-1.904-.506-1.904-1.131 0-.627.853-1.133 1.904-1.133.816 0 1.51.307 1.78.734l6.182 2.029 1.549-.867c.651-.364.651-.962 0-1.327zm-2.544 8.834c-.065.385 1.283 1.018 1.411-.107.579-5.072-.416-6.531-.416-6.531l-1.395.781c0-.001 1.183 1.125.4 5.857z"/></symbol><symbol viewBox="0 0 20 20" id="90f76b9fdc792fc4a53d17223bebcfe6" xmlns="http://www.w3.org/2000/svg"><path d="M3.389 7.113L4.49 18.021c.061.461 2.287 1.977 5.51 1.979 3.225-.002 5.451-1.518 5.511-1.979l1.102-10.908C14.929 8.055 12.412 8.5 10 8.5c-2.41 0-4.928-.445-6.611-1.387zm9.779-5.603l-.859-.951C11.977.086 11.617 0 10.916 0H9.085c-.7 0-1.061.086-1.392.559l-.859.951C4.264 1.959 2.4 3.15 2.4 4.029v.17C2.4 5.746 5.803 7 10 7c4.198 0 7.601-1.254 7.601-2.801v-.17c0-.879-1.863-2.07-4.433-2.519zM12.07 4.34L11 3H9L7.932 4.34h-1.7s1.862-2.221 2.111-2.522c.19-.23.384-.318.636-.318h2.043c.253 0 .447.088.637.318.248.301 2.111 2.522 2.111 2.522h-1.7z"/></symbol><symbol viewBox="0 0 20 20" id="95917fb7c3750e6d156bfd5bdffe39d2" xmlns="http://www.w3.org/2000/svg"><path d="M19.398 7.415l-7.444-1.996L10.651.558c-.109-.406-.545-.642-.973-.529L.602 2.461c-.428.114-.686.538-.577.944l3.23 12.051c.109.406.544.643.971.527l3.613-.967-.492 1.838c-.109.406.149.83.577.943l8.11 2.174c.428.115.862-.121.972-.529l2.97-11.084c.108-.406-.15-.83-.578-.943zM1.633 3.631l7.83-2.096 2.898 10.818-7.83 2.096L1.633 3.631zm14.045 14.832L8.864 16.6l.536-2.002 3.901-1.047c.428-.113.688-.537.578-.943l-1.508-5.627 5.947 1.631-2.64 9.851z"/></symbol><symbol viewBox="0 0 20 20" id="c5773b9a7bce81278c6aba3cd721ec79" xmlns="http://www.w3.org/2000/svg"><path d="M13.891 17.418c.268.272.268.709 0 .979s-.701.271-.969 0l-7.83-7.908a.697.697 0 010-.979l7.83-7.908c.268-.27.701-.27.969 0s.268.709 0 .979L6.75 10l7.141 7.418z"/></symbol><symbol viewBox="0 0 20 20" id="fcba2f951158d7741a6b4f3c6594ec67" xmlns="http://www.w3.org/2000/svg"><path d="M10 1.6a8.4 8.4 0 100 16.8 8.4 8.4 0 000-16.8zm4.789 11.461L13.06 14.79 10 11.729l-3.061 3.06L5.21 13.06 8.272 10 5.211 6.939 6.94 5.211 10 8.271l3.061-3.061 1.729 1.729L11.728 10l3.061 3.061z"/></symbol></svg>