<svg aria-hidden="true" width="0" height="0" style="position:absolute"><symbol viewBox="0 0 20 20" id="030794220a577069b4c9e37f7881512d" xmlns="http://www.w3.org/2000/svg"><path d="M8.294 16.998c-.435 0-.847-.203-1.111-.553L3.61 11.724a1.392 1.392 0 01.27-1.951 1.392 1.392 0 011.953.27l2.351 3.104 5.911-9.492c.407-.652 1.267-.852 1.921-.445s.854 1.266.446 1.92L9.478 16.34a1.39 1.39 0 01-1.12.656c-.022.002-.042.002-.064.002z"/></symbol><symbol viewBox="0 0 20 20" id="fcba2f951158d7741a6b4f3c6594ec67" xmlns="http://www.w3.org/2000/svg"><path d="M10 1.6a8.4 8.4 0 100 16.8 8.4 8.4 0 000-16.8zm4.789 11.461L13.06 14.79 10 11.729l-3.061 3.06L5.21 13.06 8.272 10 5.211 6.939 6.94 5.211 10 8.271l3.061-3.061 1.729 1.729L11.728 10l3.061 3.061z"/></symbol></svg>