<svg aria-hidden="true" width="0" height="0" style="position:absolute"><symbol viewBox="0 0 20 20" id="86ee9852a1a90bed89569fdb1f8d73d4" xmlns="http://www.w3.org/2000/svg"><path d="M.69 11.331l1.363.338 1.026-1.611-1.95-.482a.904.904 0 10-.439 1.755zm17.791.261l-4.463 4.016-5.247-4.061a.905.905 0 00-.338-.162l-.698-.174-1.027 1.611 1.1.273 5.697 4.408a.915.915 0 001.168-.043l5.028-4.527c.372-.334.401-.906.064-1.277s-.911-.4-1.284-.064zM8.684 7.18l4.887 3.129a.913.913 0 001.24-.246l5.027-7.242a.902.902 0 00-.231-1.26.91.91 0 00-1.265.23l-4.528 6.521-4.916-3.147a.915.915 0 00-.688-.123.914.914 0 00-.571.4L.142 17.209A.903.903 0 00.908 18.6a.908.908 0 00.768-.42l7.008-11z"/></symbol></svg>