<svg aria-hidden="true" width="0" height="0" style="position:absolute"><symbol style="position:absolute;width:0;height:0" overflow="hidden" viewBox="0 0 0 0" id="413c20ba8985527850385051fad4a148" xmlns="http://www.w3.org/2000/svg"><defs><symbol id="aicon-chevron-thin-left" viewBox="0 0 20 20"><path d="M13.891 17.418c.268.272.268.709 0 .979s-.701.271-.969 0l-7.83-7.908a.697.697 0 010-.979l7.83-7.908c.268-.27.701-.27.969 0s.268.709 0 .979L6.75 10l7.141 7.418z"/></symbol><symbol id="aicon-chevron-thin-right" viewBox="0 0 20 20"><path d="M13.25 10L6.109 2.58a.697.697 0 010-.979.68.68 0 01.969 0l7.83 7.908a.697.697 0 010 .979l-7.83 7.908c-.268.271-.701.27-.969 0s-.268-.707 0-.979L13.25 10z"/></symbol><symbol id="aicon-check" viewBox="0 0 20 20"><path d="M8.294 16.998c-.435 0-.847-.203-1.111-.553L3.61 11.724a1.392 1.392 0 01.27-1.951 1.392 1.392 0 011.953.27l2.351 3.104 5.911-9.492c.407-.652 1.267-.852 1.921-.445s.854 1.266.446 1.92L9.478 16.34a1.39 1.39 0 01-1.12.656c-.022.002-.042.002-.064.002z"/></symbol><symbol id="aicon-circle-with-cross" viewBox="0 0 20 20"><path d="M10 1.6a8.4 8.4 0 100 16.8 8.4 8.4 0 000-16.8zm4.789 11.461L13.06 14.79 10 11.729l-3.061 3.06L5.21 13.06 8.272 10 5.211 6.939 6.94 5.211 10 8.271l3.061-3.061 1.729 1.729L11.728 10l3.061 3.061z"/></symbol><symbol id="aicon-cog" viewBox="0 0 20 20"><path d="M16.783 10c0-1.049.646-1.875 1.617-2.443a8.932 8.932 0 00-.692-1.672c-1.089.285-1.97-.141-2.711-.883-.741-.74-.968-1.621-.683-2.711a8.732 8.732 0 00-1.672-.691c-.568.97-1.595 1.615-2.642 1.615-1.048 0-2.074-.645-2.643-1.615a8.697 8.697 0 00-1.671.691c.285 1.09.059 1.971-.684 2.711-.74.742-1.621 1.168-2.711.883A8.797 8.797 0 001.6 7.557c.97.568 1.615 1.394 1.615 2.443 0 1.047-.645 2.074-1.615 2.643a8.89 8.89 0 00.691 1.672c1.09-.285 1.971-.059 2.711.682s.969 1.623.684 2.711a8.841 8.841 0 001.672.693c.568-.973 1.595-1.617 2.643-1.617 1.047 0 2.074.645 2.643 1.617a8.963 8.963 0 001.672-.693c-.285-1.088-.059-1.969.683-2.711.741-.74 1.622-1.166 2.711-.883a8.811 8.811 0 00.692-1.672c-.973-.569-1.619-1.395-1.619-2.442zM10 13.652a3.652 3.652 0 110-7.306 3.654 3.654 0 010 7.306z"/></symbol><symbol id="aicon-documents" viewBox="0 0 20 20"><path d="M19.398 7.415l-7.444-1.996L10.651.558c-.109-.406-.545-.642-.973-.529L.602 2.461c-.428.114-.686.538-.577.944l3.23 12.051c.109.406.544.643.971.527l3.613-.967-.492 1.838c-.109.406.149.83.577.943l8.11 2.174c.428.115.862-.121.972-.529l2.97-11.084c.108-.406-.15-.83-.578-.943zM1.633 3.631l7.83-2.096 2.898 10.818-7.83 2.096L1.633 3.631zm14.045 14.832L8.864 16.6l.536-2.002 3.901-1.047c.428-.113.688-.537.578-.943l-1.508-5.627 5.947 1.631-2.64 9.851z"/></symbol><symbol id="aicon-drive" viewBox="0 0 20 20"><path d="M19.059 10.898l-3.171-7.927A1.543 1.543 0 0014.454 2H5.546c-.632 0-1.2.384-1.434.971L.941 10.898a4.25 4.25 0 00-.246 2.272l.59 3.539A1.544 1.544 0 002.808 18h14.383c.755 0 1.399-.546 1.523-1.291l.59-3.539a4.22 4.22 0 00-.245-2.272zm-2.1 4.347a.902.902 0 01-.891.755H3.932a.902.902 0 01-.891-.755l-.365-2.193A.902.902 0 013.567 12h12.867c.558 0 .983.501.891 1.052l-.366 2.193z"/></symbol><symbol id="aicon-graduation-cap" viewBox="0 0 20 20"><path d="M3.302 12.238c.464 1.879 1.054 2.701 3.022 3.562 1.969.86 2.904 1.8 3.676 1.8s1.648-.822 3.616-1.684c1.969-.861 1.443-1.123 1.907-3.002L10 15.6l-6.698-3.362zm16.209-4.902l-8.325-4.662c-.652-.365-1.72-.365-2.372 0L.488 7.336c-.652.365-.652.963 0 1.328l8.325 4.662c.652.365 1.72.365 2.372 0l5.382-3.014-5.836-1.367a3.09 3.09 0 01-.731.086c-1.052 0-1.904-.506-1.904-1.131 0-.627.853-1.133 1.904-1.133.816 0 1.51.307 1.78.734l6.182 2.029 1.549-.867c.651-.364.651-.962 0-1.327zm-2.544 8.834c-.065.385 1.283 1.018 1.411-.107.579-5.072-.416-6.531-.416-6.531l-1.395.781c0-.001 1.183 1.125.4 5.857z"/></symbol><symbol id="aicon-line-graph" viewBox="0 0 20 20"><path d="M.69 11.331l1.363.338 1.026-1.611-1.95-.482a.904.904 0 10-.439 1.755zm17.791.261l-4.463 4.016-5.247-4.061a.905.905 0 00-.338-.162l-.698-.174-1.027 1.611 1.1.273 5.697 4.408a.915.915 0 001.168-.043l5.028-4.527c.372-.334.401-.906.064-1.277s-.911-.4-1.284-.064zM8.684 7.18l4.887 3.129a.913.913 0 001.24-.246l5.027-7.242a.902.902 0 00-.231-1.26.91.91 0 00-1.265.23l-4.528 6.521-4.916-3.147a.915.915 0 00-.688-.123.914.914 0 00-.571.4L.142 17.209A.903.903 0 00.908 18.6a.908.908 0 00.768-.42l7.008-11z"/></symbol></defs></symbol></svg>